<svg width="412pt" height="163pt" viewBox="0.00 0.00 412.00 163.00" xmlns="http://www.w3.org/2000/svg" xmlns:xlink="http://www.w3.org/1999/xlink">
<g id="graph0" class="graph" transform="scale(1 1) rotate(0) translate(4 158.6)">
<title>G</title>
<polygon fill="white" stroke="none" points="-4,4 -4,-158.6 408.4,-158.6 408.4,4 -4,4"/>
<!-- loadA -->
<g id="node1" class="node">
<title>loadA</title>
<ellipse fill="white" stroke="#333333" stroke-width="1.5" cx="28.8" cy="-125.8" rx="28.8" ry="28.8"/>
<text xml:space="preserve" text-anchor="middle" x="28.8" y="-130" font-family="Arial" font-size="11.00">load</text>
<text xml:space="preserve" text-anchor="middle" x="28.8" y="-113.2" font-family="Arial" font-size="11.00">A</text>
</g>
<!-- mul -->
<g id="node4" class="node">
<title>mul</title>
<ellipse fill="#d6e8ff" stroke="#4a90e2" stroke-width="1.5" cx="144.4" cy="-93.8" rx="28.8" ry="28.8"/>
<text xml:space="preserve" text-anchor="middle" x="144.4" y="-89.6" font-family="Arial" font-size="11.00">mul</text>
</g>
<!-- loadA&#45;&gt;mul -->
<g id="edge1" class="edge">
<title>loadA-&gt;mul</title>
<path fill="none" stroke="#444444" d="M57.3,-118.05C72.37,-113.81 91.23,-108.5 107.45,-103.93"/>
<polygon fill="#444444" stroke="#444444" points="114.98,-101.81 108.26,-107.44 112.3,-102.56 107.28,-103.97 107.28,-103.97 107.28,-103.97 112.3,-102.56 106.3,-100.51 114.98,-101.81"/>
</g>
<!-- loadB -->
<g id="node2" class="node">
<title>loadB</title>
<ellipse fill="white" stroke="#333333" stroke-width="1.5" cx="28.8" cy="-60.8" rx="28.8" ry="28.8"/>
<text xml:space="preserve" text-anchor="middle" x="28.8" y="-65" font-family="Arial" font-size="11.00">load</text>
<text xml:space="preserve" text-anchor="middle" x="28.8" y="-48.2" font-family="Arial" font-size="11.00">B</text>
</g>
<!-- loadB&#45;&gt;mul -->
<g id="edge2" class="edge">
<title>loadB-&gt;mul</title>
<path fill="none" stroke="#444444" d="M57.01,-68.7C72.07,-73.08 90.99,-78.58 107.28,-83.31"/>
<polygon fill="#444444" stroke="#444444" points="114.85,-85.51 106.16,-86.73 112.18,-84.73 107.17,-83.27 107.17,-83.27 107.17,-83.27 112.18,-84.73 108.17,-79.82 114.85,-85.51"/>
</g>
<!-- loadC -->
<g id="node3" class="node">
<title>loadC</title>
<ellipse fill="white" stroke="#333333" stroke-width="1.5" cx="144.4" cy="-28.8" rx="28.8" ry="28.8"/>
<text xml:space="preserve" text-anchor="middle" x="144.4" y="-33" font-family="Arial" font-size="11.00">load</text>
<text xml:space="preserve" text-anchor="middle" x="144.4" y="-16.2" font-family="Arial" font-size="11.00">C</text>
</g>
<!-- add -->
<g id="node5" class="node">
<title>add</title>
<ellipse fill="#d6e8ff" stroke="#4a90e2" stroke-width="1.5" cx="260" cy="-60.8" rx="28.8" ry="28.8"/>
<text xml:space="preserve" text-anchor="middle" x="260" y="-56.6" font-family="Arial" font-size="11.00">add</text>
</g>
<!-- loadC&#45;&gt;add -->
<g id="edge4" class="edge">
<title>loadC-&gt;add</title>
<path fill="none" stroke="#444444" d="M172.9,-36.55C187.97,-40.79 206.83,-46.1 223.05,-50.67"/>
<polygon fill="#444444" stroke="#444444" points="230.58,-52.79 221.9,-54.09 227.9,-52.04 222.88,-50.63 222.88,-50.63 222.88,-50.63 227.9,-52.04 223.86,-47.16 230.58,-52.79"/>
</g>
<!-- mul&#45;&gt;add -->
<g id="edge3" class="edge">
<title>mul-&gt;add</title>
<path fill="none" stroke="#444444" d="M172.61,-85.9C187.67,-81.52 206.59,-76.02 222.88,-71.29"/>
<polygon fill="#444444" stroke="#444444" points="230.45,-69.09 223.77,-74.78 227.78,-69.87 222.77,-71.33 222.77,-71.33 222.77,-71.33 227.78,-69.87 221.76,-67.87 230.45,-69.09"/>
</g>
<!-- store -->
<g id="node6" class="node">
<title>store</title>
<ellipse fill="#d4edda" stroke="#28a745" stroke-width="1.5" cx="375.6" cy="-60.8" rx="28.8" ry="28.8"/>
<text xml:space="preserve" text-anchor="middle" x="375.6" y="-56.6" font-family="Arial" font-size="11.00">store</text>
</g>
<!-- add&#45;&gt;store -->
<g id="edge5" class="edge">
<title>add-&gt;store</title>
<path fill="none" stroke="#444444" d="M289.37,-60.8C303.88,-60.8 321.71,-60.8 337.31,-60.8"/>
<polygon fill="#444444" stroke="#444444" points="344.98,-60.8 336.98,-64.4 342.19,-60.8 336.98,-60.8 336.98,-60.8 336.98,-60.8 342.19,-60.8 336.98,-57.2 344.98,-60.8"/>
</g>
</g>
</svg>